<svg width="17" height="17" viewBox="0 0 17 17" fill="none" xmlns="http://www.w3.org/2000/svg">
<g clip-path="url(#clip0_1330_26359)">
<path d="M8.52409 2.13629C5.94409 2.13629 3.85742 4.22296 3.85742 6.80296C3.85742 10.303 8.52409 15.4696 8.52409 15.4696C8.52409 15.4696 13.1908 10.303 13.1908 6.80296C13.1908 4.22296 11.1041 2.13629 8.52409 2.13629ZM5.19076 6.80296C5.19076 4.96296 6.68409 3.46962 8.52409 3.46962C10.3641 3.46962 11.8574 4.96296 11.8574 6.80296C11.8574 8.72296 9.93742 11.5963 8.52409 13.3896C7.13742 11.6096 5.19076 8.70296 5.19076 6.80296Z" fill="white"/>
<path d="M8.52409 8.46962C9.44456 8.46962 10.1908 7.72343 10.1908 6.80296C10.1908 5.88248 9.44456 5.13629 8.52409 5.13629C7.60361 5.13629 6.85742 5.88248 6.85742 6.80296C6.85742 7.72343 7.60361 8.46962 8.52409 8.46962Z" fill="white"/>
</g>
<defs>
<clipPath id="clip0_1330_26359">
<rect width="16" height="16" fill="white" transform="translate(0.523438 0.802979)"/>
</clipPath>
</defs>
</svg>
